<svg width="141" height="41" viewBox="0 0 141 41" fill="none" xmlns="http://www.w3.org/2000/svg">
<g clip-path="url(#clip0_1_52)">
<path fill-rule="evenodd" clip-rule="evenodd" d="M37.5375 8.92188L25.6657 32.1298H14.5148L19.4831 22.5114H19.2603C15.1614 27.8322 9.04594 31.3349 0.332275 32.1298V22.6446C0.332275 22.6446 5.90661 22.3153 9.1836 18.87H0.332275V8.92206H10.2802V17.1041L10.5035 17.1032L14.5686 8.92206H22.092V17.0522L22.3152 17.0519L26.5328 8.92188H37.5375Z" fill="#1B1F26" fill-opacity="0.72"/>
<path fill-rule="evenodd" clip-rule="evenodd" d="M37.5375 8.92188L25.6657 32.1298H14.5148L19.4831 22.5114H19.2603C15.1614 27.8322 9.04594 31.3349 0.332275 32.1298V22.6446C0.332275 22.6446 5.90661 22.3153 9.1836 18.87H0.332275V8.92206H10.2802V17.1041L10.5035 17.1032L14.5686 8.92206H22.092V17.0522L22.3152 17.0519L26.5328 8.92188H37.5375Z" fill="#212121"/>
<path d="M102.275 29.5676H105.479V11.1777H102.275V29.5676ZM84.6132 29.3798C85.3096 29.6694 86.0176 29.814 86.7375 29.814C87.9267 29.814 88.9906 29.5246 89.9295 28.9456C90.8684 28.3667 91.5959 27.5686 92.1124 26.5516C92.6288 25.5266 92.8869 24.3648 92.8869 23.066C92.8869 21.7672 92.6209 20.6054 92.0889 19.5805C91.5569 18.5556 90.8176 17.7615 89.8708 17.1982C88.9242 16.627 87.8484 16.3454 86.6435 16.3532C85.8768 16.3532 85.1414 16.5018 84.4373 16.7991C83.733 17.0964 83.1463 17.5189 82.6768 18.0666C82.6406 18.1083 82.6054 18.1504 82.5712 18.1929V11.1895H79.3556V29.5677H82.5478L82.5413 27.8508C82.624 27.952 82.7121 28.0509 82.806 28.1475C83.3145 28.6718 83.917 29.0826 84.6132 29.3798ZM87.8992 26.4107C87.3751 26.7314 86.7765 26.8919 86.1037 26.8919C85.4387 26.8919 84.8284 26.7276 84.2729 26.399C83.7174 26.0625 83.2754 25.6049 82.9468 25.0259C82.626 24.447 82.4657 23.7898 82.4657 23.0543C82.4578 22.3188 82.6143 21.6616 82.935 21.0827C83.2636 20.4959 83.7057 20.0421 84.2612 19.7213C84.8167 19.3927 85.4308 19.2324 86.1037 19.2402C86.7765 19.2324 87.3751 19.3888 87.8992 19.7096C88.4313 20.0226 88.8381 20.4724 89.1198 21.0592C89.4092 21.6382 89.554 22.3033 89.554 23.0543C89.554 23.8054 89.4092 24.4704 89.1198 25.0494C88.8381 25.6283 88.4313 26.0821 87.8992 26.4107ZM42.1799 12.2926H45.8415L49.1169 24.2545L52.6013 12.2926H55.6525L59.4315 24.0144L62.5766 12.2926H65.933L60.9805 29.5676H57.8236L53.9811 18.1164L50.4536 29.5676H47.2614L42.1799 12.2926ZM71.3402 29.8728C70.0648 29.8805 68.9148 29.5988 67.8898 29.0278C66.8728 28.4488 66.0708 27.6468 65.484 26.622C64.9051 25.597 64.6155 24.4274 64.6155 23.113C64.6155 21.8377 64.9129 20.6837 65.5075 19.6509C66.102 18.6182 66.908 17.8123 67.925 17.2334C68.9421 16.6544 70.0765 16.3649 71.3284 16.3649C72.7367 16.3649 73.969 16.6779 75.0252 17.3038C76.0892 17.9297 76.8833 18.8177 77.4075 19.9678C77.9395 21.1101 78.1312 22.4206 77.9826 23.8992H67.93C67.9581 24.4883 68.1051 25.0244 68.371 25.507C68.6683 26.039 69.083 26.4537 69.6149 26.751C70.1469 27.0483 70.7416 27.1969 71.3988 27.1969C71.8995 27.1892 72.365 27.1031 72.7953 26.9388C73.2256 26.7667 73.5894 26.5359 73.8868 26.2465C74.1919 25.9569 74.407 25.6283 74.5322 25.2607H77.8887C77.6853 26.1603 77.2784 26.9623 76.6682 27.6664C76.0579 28.3627 75.2911 28.9065 74.3679 29.2977C73.4447 29.6888 72.4354 29.8805 71.3402 29.8728ZM68.3828 20.6719C68.1952 20.9989 68.0654 21.351 67.993 21.7282H74.6566C74.6082 21.2516 74.4612 20.8174 74.2153 20.4255C73.9338 19.9639 73.5504 19.6079 73.0653 19.3575C72.5802 19.0994 72.0326 18.9703 71.4223 18.9703C70.7729 18.9703 70.1823 19.1189 69.6502 19.4162C69.1182 19.7135 68.6956 20.1321 68.3828 20.6719ZM95.2457 16.6348C95.2457 15.5864 95.4845 14.6554 95.9617 13.8417C96.439 13.0202 97.1079 12.3826 97.9685 11.9288C98.8369 11.4672 99.8501 11.2286 101.008 11.2129V14.0647C100.468 14.0725 100.007 14.186 99.6232 14.4051C99.2477 14.6163 98.9582 14.9253 98.7548 15.3322C98.5674 15.7067 98.4664 16.1409 98.4516 16.6348H100.938V19.3458H98.4496V29.5676H95.2457V19.3458H93.1803V16.6348H95.2457ZM113.624 29.8493C112.317 29.8493 111.148 29.5637 110.115 28.9926C109.09 28.4136 108.284 27.6155 107.697 26.5985C107.118 25.5735 106.829 24.4118 106.829 23.113C106.829 21.8064 107.118 20.6406 107.697 19.6157C108.284 18.583 109.09 17.781 110.115 17.2099C111.148 16.6388 112.317 16.3532 113.624 16.3532C114.938 16.3532 116.112 16.6388 117.145 17.2099C118.185 17.781 118.995 18.5791 119.574 19.604C120.153 20.6289 120.446 21.7986 120.454 23.113C120.446 24.4118 120.153 25.5735 119.574 26.5985C119.003 27.6155 118.197 28.4136 117.156 28.9926C116.116 29.5637 114.938 29.8493 113.624 29.8493ZM113.624 26.9037C114.312 26.9037 114.923 26.7472 115.455 26.4342C115.987 26.1134 116.397 25.6674 116.687 25.0963C116.976 24.5173 117.121 23.8563 117.121 23.113C117.121 22.3619 116.976 21.6969 116.687 21.1179C116.397 20.5389 115.987 20.093 115.455 19.78C114.923 19.4592 114.312 19.2989 113.624 19.2989C112.943 19.2989 112.337 19.4592 111.805 19.78C111.281 20.093 110.874 20.5389 110.584 21.1179C110.295 21.6969 110.154 22.3619 110.162 23.113C110.162 23.8563 110.306 24.5173 110.596 25.0963C110.893 25.6674 111.3 26.1134 111.817 26.4342C112.341 26.7472 112.943 26.9037 113.624 26.9037ZM123.916 16.6348H120.348L124.209 29.5676H127.331L129.871 21.3075L132.613 29.5676H135.687L139.56 16.6348H136.333L134.136 24.6847L131.709 16.6348H128.587L126.171 24.8621L123.916 16.6348Z" fill="black" fill-opacity="0.2"/>
<path fill-rule="evenodd" clip-rule="evenodd" d="M102.275 29.5676H105.479V11.1777H102.275V29.5676ZM84.6132 29.3798C85.3096 29.6694 86.0176 29.814 86.7375 29.814C87.9267 29.814 88.9906 29.5246 89.9295 28.9456C90.8684 28.3667 91.5959 27.5686 92.1124 26.5516C92.6288 25.5266 92.8869 24.3648 92.8869 23.066C92.8869 21.7672 92.6209 20.6054 92.0889 19.5805C91.5569 18.5556 90.8176 17.7615 89.8708 17.1982C88.9242 16.627 87.8484 16.3454 86.6435 16.3532C85.8768 16.3532 85.1414 16.5018 84.4373 16.7991C83.733 17.0964 83.1463 17.5189 82.6768 18.0666C82.6406 18.1083 82.6054 18.1504 82.5712 18.1929V11.1895H79.3556V29.5677H82.5478L82.5413 27.8508C82.624 27.952 82.7121 28.0509 82.806 28.1475C83.3145 28.6718 83.917 29.0826 84.6132 29.3798ZM87.8992 26.4107C87.3751 26.7314 86.7765 26.8919 86.1037 26.8919C85.4387 26.8919 84.8284 26.7276 84.2729 26.399C83.7174 26.0625 83.2754 25.6049 82.9468 25.0259C82.626 24.447 82.4657 23.7898 82.4657 23.0543C82.4578 22.3188 82.6143 21.6616 82.935 21.0827C83.2636 20.4959 83.7057 20.0421 84.2612 19.7213C84.8167 19.3927 85.4308 19.2324 86.1037 19.2402C86.7765 19.2324 87.3751 19.3888 87.8992 19.7096C88.4313 20.0226 88.8381 20.4724 89.1198 21.0592C89.4092 21.6382 89.554 22.3033 89.554 23.0543C89.554 23.8054 89.4092 24.4704 89.1198 25.0494C88.8381 25.6283 88.4313 26.0821 87.8992 26.4107ZM42.1799 12.2926H45.8415L49.1169 24.2545L52.6013 12.2926H55.6525L59.4315 24.0144L62.5766 12.2926H65.933L60.9805 29.5676H57.8236L53.9811 18.1164L50.4536 29.5676H47.2614L42.1799 12.2926ZM71.3402 29.8728C70.0648 29.8805 68.9148 29.5988 67.8898 29.0278C66.8728 28.4488 66.0708 27.6468 65.484 26.622C64.9051 25.597 64.6155 24.4274 64.6155 23.113C64.6155 21.8377 64.9129 20.6837 65.5075 19.6509C66.102 18.6182 66.908 17.8123 67.925 17.2334C68.9421 16.6544 70.0765 16.3649 71.3284 16.3649C72.7367 16.3649 73.969 16.6779 75.0252 17.3038C76.0892 17.9297 76.8833 18.8177 77.4075 19.9678C77.9395 21.1101 78.1312 22.4206 77.9826 23.8992H67.93C67.9581 24.4883 68.1051 25.0244 68.371 25.507C68.6683 26.039 69.083 26.4537 69.6149 26.751C70.1469 27.0483 70.7416 27.1969 71.3988 27.1969C71.8995 27.1892 72.365 27.1031 72.7953 26.9388C73.2256 26.7667 73.5894 26.5359 73.8868 26.2465C74.1919 25.9569 74.407 25.6283 74.5322 25.2607H77.8887C77.6853 26.1603 77.2784 26.9623 76.6682 27.6664C76.0579 28.3627 75.2911 28.9065 74.3679 29.2977C73.4447 29.6888 72.4354 29.8805 71.3402 29.8728ZM68.3828 20.6719C68.1952 20.9989 68.0654 21.351 67.993 21.7282H74.6566C74.6082 21.2516 74.4612 20.8174 74.2153 20.4255C73.9338 19.9639 73.5504 19.6079 73.0653 19.3575C72.5802 19.0994 72.0326 18.9703 71.4223 18.9703C70.7729 18.9703 70.1823 19.1189 69.6502 19.4162C69.1182 19.7135 68.6956 20.1321 68.3828 20.6719ZM95.2457 16.6348C95.2457 15.5864 95.4845 14.6554 95.9617 13.8417C96.439 13.0202 97.1079 12.3826 97.9685 11.9288C98.8369 11.4672 99.8501 11.2286 101.008 11.2129V14.0647C100.468 14.0725 100.007 14.186 99.6232 14.4051C99.2477 14.6163 98.9582 14.9253 98.7548 15.3322C98.5674 15.7067 98.4664 16.1409 98.4516 16.6348H100.938V19.3458H98.4496V29.5676H95.2457V19.3458H93.1803V16.6348H95.2457ZM113.624 29.8493C112.317 29.8493 111.148 29.5637 110.115 28.9926C109.09 28.4136 108.284 27.6155 107.697 26.5985C107.118 25.5735 106.829 24.4118 106.829 23.113C106.829 21.8064 107.118 20.6406 107.697 19.6157C108.284 18.583 109.09 17.781 110.115 17.2099C111.148 16.6388 112.317 16.3532 113.624 16.3532C114.938 16.3532 116.112 16.6388 117.145 17.2099C118.185 17.781 118.995 18.5791 119.574 19.604C120.153 20.6289 120.446 21.7986 120.454 23.113C120.446 24.4118 120.153 25.5735 119.574 26.5985C119.003 27.6155 118.197 28.4136 117.156 28.9926C116.116 29.5637 114.938 29.8493 113.624 29.8493ZM113.624 26.9037C114.312 26.9037 114.923 26.7472 115.455 26.4342C115.987 26.1134 116.397 25.6674 116.687 25.0963C116.976 24.5173 117.121 23.8563 117.121 23.113C117.121 22.3619 116.976 21.6969 116.687 21.1179C116.397 20.5389 115.987 20.093 115.455 19.78C114.923 19.4592 114.312 19.2989 113.624 19.2989C112.943 19.2989 112.337 19.4592 111.805 19.78C111.281 20.093 110.874 20.5389 110.584 21.1179C110.295 21.6969 110.154 22.3619 110.162 23.113C110.162 23.8563 110.306 24.5173 110.596 25.0963C110.893 25.6674 111.3 26.1134 111.817 26.4342C112.341 26.7472 112.943 26.9037 113.624 26.9037ZM123.916 16.6348H120.348L124.209 29.5676H127.331L129.871 21.3075L132.613 29.5676H135.687L139.56 16.6348H136.333L134.136 24.6847L131.709 16.6348H128.587L126.171 24.8621L123.916 16.6348Z" fill="black" fill-opacity="0.2"/>
<path d="M102.275 29.5676H105.479V11.1777H102.275V29.5676ZM84.6132 29.3798C85.3096 29.6694 86.0176 29.814 86.7375 29.814C87.9267 29.814 88.9906 29.5246 89.9295 28.9456C90.8684 28.3667 91.5959 27.5686 92.1124 26.5516C92.6288 25.5266 92.8869 24.3648 92.8869 23.066C92.8869 21.7672 92.6209 20.6054 92.0889 19.5805C91.5569 18.5556 90.8176 17.7615 89.8708 17.1982C88.9242 16.627 87.8484 16.3454 86.6435 16.3532C85.8768 16.3532 85.1414 16.5018 84.4373 16.7991C83.733 17.0964 83.1463 17.5189 82.6768 18.0666C82.6406 18.1083 82.6054 18.1504 82.5712 18.1929V11.1895H79.3556V29.5677H82.5478L82.5413 27.8508C82.624 27.952 82.7121 28.0509 82.806 28.1475C83.3145 28.6718 83.917 29.0826 84.6132 29.3798ZM87.8992 26.4107C87.3751 26.7314 86.7765 26.8919 86.1037 26.8919C85.4387 26.8919 84.8284 26.7276 84.2729 26.399C83.7174 26.0625 83.2754 25.6049 82.9468 25.0259C82.626 24.447 82.4657 23.7898 82.4657 23.0543C82.4578 22.3188 82.6143 21.6616 82.935 21.0827C83.2636 20.4959 83.7057 20.0421 84.2612 19.7213C84.8167 19.3927 85.4308 19.2324 86.1037 19.2402C86.7765 19.2324 87.3751 19.3888 87.8992 19.7096C88.4313 20.0226 88.8381 20.4724 89.1198 21.0592C89.4092 21.6382 89.554 22.3033 89.554 23.0543C89.554 23.8054 89.4092 24.4704 89.1198 25.0494C88.8381 25.6283 88.4313 26.0821 87.8992 26.4107ZM42.1799 12.2926H45.8415L49.1169 24.2545L52.6013 12.2926H55.6525L59.4315 24.0144L62.5766 12.2926H65.933L60.9805 29.5676H57.8236L53.9811 18.1164L50.4536 29.5676H47.2614L42.1799 12.2926ZM71.3402 29.8728C70.0648 29.8805 68.9148 29.5988 67.8898 29.0278C66.8728 28.4488 66.0708 27.6468 65.484 26.622C64.9051 25.597 64.6155 24.4274 64.6155 23.113C64.6155 21.8377 64.9129 20.6837 65.5075 19.6509C66.102 18.6182 66.908 17.8123 67.925 17.2334C68.9421 16.6544 70.0765 16.3649 71.3284 16.3649C72.7367 16.3649 73.969 16.6779 75.0252 17.3038C76.0892 17.9297 76.8833 18.8177 77.4075 19.9678C77.9395 21.1101 78.1312 22.4206 77.9826 23.8992H67.93C67.9581 24.4883 68.1051 25.0244 68.371 25.507C68.6683 26.039 69.083 26.4537 69.6149 26.751C70.1469 27.0483 70.7416 27.1969 71.3988 27.1969C71.8995 27.1892 72.365 27.1031 72.7953 26.9388C73.2256 26.7667 73.5894 26.5359 73.8868 26.2465C74.1919 25.9569 74.407 25.6283 74.5322 25.2607H77.8887C77.6853 26.1603 77.2784 26.9623 76.6682 27.6664C76.0579 28.3627 75.2911 28.9065 74.3679 29.2977C73.4447 29.6888 72.4354 29.8805 71.3402 29.8728ZM68.3828 20.6719C68.1952 20.9989 68.0654 21.351 67.993 21.7282H74.6566C74.6082 21.2516 74.4612 20.8174 74.2153 20.4255C73.9338 19.9639 73.5504 19.6079 73.0653 19.3575C72.5802 19.0994 72.0326 18.9703 71.4223 18.9703C70.7729 18.9703 70.1823 19.1189 69.6502 19.4162C69.1182 19.7135 68.6956 20.1321 68.3828 20.6719ZM95.2457 16.6348C95.2457 15.5864 95.4845 14.6554 95.9617 13.8417C96.439 13.0202 97.1079 12.3826 97.9685 11.9288C98.8369 11.4672 99.8501 11.2286 101.008 11.2129V14.0647C100.468 14.0725 100.007 14.186 99.6232 14.4051C99.2477 14.6163 98.9582 14.9253 98.7548 15.3322C98.5674 15.7067 98.4664 16.1409 98.4516 16.6348H100.938V19.3458H98.4496V29.5676H95.2457V19.3458H93.1803V16.6348H95.2457ZM113.624 29.8493C112.317 29.8493 111.148 29.5637 110.115 28.9926C109.09 28.4136 108.284 27.6155 107.697 26.5985C107.118 25.5735 106.829 24.4118 106.829 23.113C106.829 21.8064 107.118 20.6406 107.697 19.6157C108.284 18.583 109.09 17.781 110.115 17.2099C111.148 16.6388 112.317 16.3532 113.624 16.3532C114.938 16.3532 116.112 16.6388 117.145 17.2099C118.185 17.781 118.995 18.5791 119.574 19.604C120.153 20.6289 120.446 21.7986 120.454 23.113C120.446 24.4118 120.153 25.5735 119.574 26.5985C119.003 27.6155 118.197 28.4136 117.156 28.9926C116.116 29.5637 114.938 29.8493 113.624 29.8493ZM113.624 26.9037C114.312 26.9037 114.923 26.7472 115.455 26.4342C115.987 26.1134 116.397 25.6674 116.687 25.0963C116.976 24.5173 117.121 23.8563 117.121 23.113C117.121 22.3619 116.976 21.6969 116.687 21.1179C116.397 20.5389 115.987 20.093 115.455 19.78C114.923 19.4592 114.312 19.2989 113.624 19.2989C112.943 19.2989 112.337 19.4592 111.805 19.78C111.281 20.093 110.874 20.5389 110.584 21.1179C110.295 21.6969 110.154 22.3619 110.162 23.113C110.162 23.8563 110.306 24.5173 110.596 25.0963C110.893 25.6674 111.3 26.1134 111.817 26.4342C112.341 26.7472 112.943 26.9037 113.624 26.9037ZM123.916 16.6348H120.348L124.209 29.5676H127.331L129.871 21.3075L132.613 29.5676H135.687L139.56 16.6348H136.333L134.136 24.6847L131.709 16.6348H128.587L126.171 24.8621L123.916 16.6348Z" fill="black" fill-opacity="0.2"/>
<path fill-rule="evenodd" clip-rule="evenodd" d="M102.275 29.5676H105.479V11.1777H102.275V29.5676ZM84.6132 29.3798C85.3096 29.6694 86.0176 29.814 86.7375 29.814C87.9267 29.814 88.9906 29.5246 89.9295 28.9456C90.8684 28.3667 91.5959 27.5686 92.1124 26.5516C92.6288 25.5266 92.8869 24.3648 92.8869 23.066C92.8869 21.7672 92.6209 20.6054 92.0889 19.5805C91.5569 18.5556 90.8176 17.7615 89.8708 17.1982C88.9242 16.627 87.8484 16.3454 86.6435 16.3532C85.8768 16.3532 85.1414 16.5018 84.4373 16.7991C83.733 17.0964 83.1463 17.5189 82.6768 18.0666C82.6406 18.1083 82.6054 18.1504 82.5712 18.1929V11.1895H79.3556V29.5677H82.5478L82.5413 27.8508C82.624 27.952 82.7121 28.0509 82.806 28.1475C83.3145 28.6718 83.917 29.0826 84.6132 29.3798ZM87.8992 26.4107C87.3751 26.7314 86.7765 26.8919 86.1037 26.8919C85.4387 26.8919 84.8284 26.7276 84.2729 26.399C83.7174 26.0625 83.2754 25.6049 82.9468 25.0259C82.626 24.447 82.4657 23.7898 82.4657 23.0543C82.4578 22.3188 82.6143 21.6616 82.935 21.0827C83.2636 20.4959 83.7057 20.0421 84.2612 19.7213C84.8167 19.3927 85.4308 19.2324 86.1037 19.2402C86.7765 19.2324 87.3751 19.3888 87.8992 19.7096C88.4313 20.0226 88.8381 20.4724 89.1198 21.0592C89.4092 21.6382 89.554 22.3033 89.554 23.0543C89.554 23.8054 89.4092 24.4704 89.1198 25.0494C88.8381 25.6283 88.4313 26.0821 87.8992 26.4107ZM42.1799 12.2926H45.8415L49.1169 24.2545L52.6013 12.2926H55.6525L59.4315 24.0144L62.5766 12.2926H65.933L60.9805 29.5676H57.8236L53.9811 18.1164L50.4536 29.5676H47.2614L42.1799 12.2926ZM71.3402 29.8728C70.0648 29.8805 68.9148 29.5988 67.8898 29.0278C66.8728 28.4488 66.0708 27.6468 65.484 26.622C64.9051 25.597 64.6155 24.4274 64.6155 23.113C64.6155 21.8377 64.9129 20.6837 65.5075 19.6509C66.102 18.6182 66.908 17.8123 67.925 17.2334C68.9421 16.6544 70.0765 16.3649 71.3284 16.3649C72.7367 16.3649 73.969 16.6779 75.0252 17.3038C76.0892 17.9297 76.8833 18.8177 77.4075 19.9678C77.9395 21.1101 78.1312 22.4206 77.9826 23.8992H67.93C67.9581 24.4883 68.1051 25.0244 68.371 25.507C68.6683 26.039 69.083 26.4537 69.6149 26.751C70.1469 27.0483 70.7416 27.1969 71.3988 27.1969C71.8995 27.1892 72.365 27.1031 72.7953 26.9388C73.2256 26.7667 73.5894 26.5359 73.8868 26.2465C74.1919 25.9569 74.407 25.6283 74.5322 25.2607H77.8887C77.6853 26.1603 77.2784 26.9623 76.6682 27.6664C76.0579 28.3627 75.2911 28.9065 74.3679 29.2977C73.4447 29.6888 72.4354 29.8805 71.3402 29.8728ZM68.3828 20.6719C68.1952 20.9989 68.0654 21.351 67.993 21.7282H74.6566C74.6082 21.2516 74.4612 20.8174 74.2153 20.4255C73.9338 19.9639 73.5504 19.6079 73.0653 19.3575C72.5802 19.0994 72.0326 18.9703 71.4223 18.9703C70.7729 18.9703 70.1823 19.1189 69.6502 19.4162C69.1182 19.7135 68.6956 20.1321 68.3828 20.6719ZM95.2457 16.6348C95.2457 15.5864 95.4845 14.6554 95.9617 13.8417C96.439 13.0202 97.1079 12.3826 97.9685 11.9288C98.8369 11.4672 99.8501 11.2286 101.008 11.2129V14.0647C100.468 14.0725 100.007 14.186 99.6232 14.4051C99.2477 14.6163 98.9582 14.9253 98.7548 15.3322C98.5674 15.7067 98.4664 16.1409 98.4516 16.6348H100.938V19.3458H98.4496V29.5676H95.2457V19.3458H93.1803V16.6348H95.2457ZM113.624 29.8493C112.317 29.8493 111.148 29.5637 110.115 28.9926C109.09 28.4136 108.284 27.6155 107.697 26.5985C107.118 25.5735 106.829 24.4118 106.829 23.113C106.829 21.8064 107.118 20.6406 107.697 19.6157C108.284 18.583 109.09 17.781 110.115 17.2099C111.148 16.6388 112.317 16.3532 113.624 16.3532C114.938 16.3532 116.112 16.6388 117.145 17.2099C118.185 17.781 118.995 18.5791 119.574 19.604C120.153 20.6289 120.446 21.7986 120.454 23.113C120.446 24.4118 120.153 25.5735 119.574 26.5985C119.003 27.6155 118.197 28.4136 117.156 28.9926C116.116 29.5637 114.938 29.8493 113.624 29.8493ZM113.624 26.9037C114.312 26.9037 114.923 26.7472 115.455 26.4342C115.987 26.1134 116.397 25.6674 116.687 25.0963C116.976 24.5173 117.121 23.8563 117.121 23.113C117.121 22.3619 116.976 21.6969 116.687 21.1179C116.397 20.5389 115.987 20.093 115.455 19.78C114.923 19.4592 114.312 19.2989 113.624 19.2989C112.943 19.2989 112.337 19.4592 111.805 19.78C111.281 20.093 110.874 20.5389 110.584 21.1179C110.295 21.6969 110.154 22.3619 110.162 23.113C110.162 23.8563 110.306 24.5173 110.596 25.0963C110.893 25.6674 111.3 26.1134 111.817 26.4342C112.341 26.7472 112.943 26.9037 113.624 26.9037ZM123.916 16.6348H120.348L124.209 29.5676H127.331L129.871 21.3075L132.613 29.5676H135.687L139.56 16.6348H136.333L134.136 24.6847L131.709 16.6348H128.587L126.171 24.8621L123.916 16.6348Z" fill="black" fill-opacity="0.2"/>
<path d="M102.275 29.5676H105.479V11.1777H102.275V29.5676ZM84.6132 29.3798C85.3096 29.6694 86.0176 29.814 86.7375 29.814C87.9267 29.814 88.9906 29.5246 89.9295 28.9456C90.8684 28.3667 91.5959 27.5686 92.1124 26.5516C92.6288 25.5266 92.8869 24.3648 92.8869 23.066C92.8869 21.7672 92.6209 20.6054 92.0889 19.5805C91.5569 18.5556 90.8176 17.7615 89.8708 17.1982C88.9242 16.627 87.8484 16.3454 86.6435 16.3532C85.8768 16.3532 85.1414 16.5018 84.4373 16.7991C83.733 17.0964 83.1463 17.5189 82.6768 18.0666C82.6406 18.1083 82.6054 18.1504 82.5712 18.1929V11.1895H79.3556V29.5677H82.5478L82.5413 27.8508C82.624 27.952 82.7121 28.0509 82.806 28.1475C83.3145 28.6718 83.917 29.0826 84.6132 29.3798ZM87.8992 26.4107C87.3751 26.7314 86.7765 26.8919 86.1037 26.8919C85.4387 26.8919 84.8284 26.7276 84.2729 26.399C83.7174 26.0625 83.2754 25.6049 82.9468 25.0259C82.626 24.447 82.4657 23.7898 82.4657 23.0543C82.4578 22.3188 82.6143 21.6616 82.935 21.0827C83.2636 20.4959 83.7057 20.0421 84.2612 19.7213C84.8167 19.3927 85.4308 19.2324 86.1037 19.2402C86.7765 19.2324 87.3751 19.3888 87.8992 19.7096C88.4313 20.0226 88.8381 20.4724 89.1198 21.0592C89.4092 21.6382 89.554 22.3033 89.554 23.0543C89.554 23.8054 89.4092 24.4704 89.1198 25.0494C88.8381 25.6283 88.4313 26.0821 87.8992 26.4107ZM42.1799 12.2926H45.8415L49.1169 24.2545L52.6013 12.2926H55.6525L59.4315 24.0144L62.5766 12.2926H65.933L60.9805 29.5676H57.8236L53.9811 18.1164L50.4536 29.5676H47.2614L42.1799 12.2926ZM71.3402 29.8728C70.0648 29.8805 68.9148 29.5988 67.8898 29.0278C66.8728 28.4488 66.0708 27.6468 65.484 26.622C64.9051 25.597 64.6155 24.4274 64.6155 23.113C64.6155 21.8377 64.9129 20.6837 65.5075 19.6509C66.102 18.6182 66.908 17.8123 67.925 17.2334C68.9421 16.6544 70.0765 16.3649 71.3284 16.3649C72.7367 16.3649 73.969 16.6779 75.0252 17.3038C76.0892 17.9297 76.8833 18.8177 77.4075 19.9678C77.9395 21.1101 78.1312 22.4206 77.9826 23.8992H67.93C67.9581 24.4883 68.1051 25.0244 68.371 25.507C68.6683 26.039 69.083 26.4537 69.6149 26.751C70.1469 27.0483 70.7416 27.1969 71.3988 27.1969C71.8995 27.1892 72.365 27.1031 72.7953 26.9388C73.2256 26.7667 73.5894 26.5359 73.8868 26.2465C74.1919 25.9569 74.407 25.6283 74.5322 25.2607H77.8887C77.6853 26.1603 77.2784 26.9623 76.6682 27.6664C76.0579 28.3627 75.2911 28.9065 74.3679 29.2977C73.4447 29.6888 72.4354 29.8805 71.3402 29.8728ZM68.3828 20.6719C68.1952 20.9989 68.0654 21.351 67.993 21.7282H74.6566C74.6082 21.2516 74.4612 20.8174 74.2153 20.4255C73.9338 19.9639 73.5504 19.6079 73.0653 19.3575C72.5802 19.0994 72.0326 18.9703 71.4223 18.9703C70.7729 18.9703 70.1823 19.1189 69.6502 19.4162C69.1182 19.7135 68.6956 20.1321 68.3828 20.6719ZM95.2457 16.6348C95.2457 15.5864 95.4845 14.6554 95.9617 13.8417C96.439 13.0202 97.1079 12.3826 97.9685 11.9288C98.8369 11.4672 99.8501 11.2286 101.008 11.2129V14.0647C100.468 14.0725 100.007 14.186 99.6232 14.4051C99.2477 14.6163 98.9582 14.9253 98.7548 15.3322C98.5674 15.7067 98.4664 16.1409 98.4516 16.6348H100.938V19.3458H98.4496V29.5676H95.2457V19.3458H93.1803V16.6348H95.2457ZM113.624 29.8493C112.317 29.8493 111.148 29.5637 110.115 28.9926C109.09 28.4136 108.284 27.6155 107.697 26.5985C107.118 25.5735 106.829 24.4118 106.829 23.113C106.829 21.8064 107.118 20.6406 107.697 19.6157C108.284 18.583 109.09 17.781 110.115 17.2099C111.148 16.6388 112.317 16.3532 113.624 16.3532C114.938 16.3532 116.112 16.6388 117.145 17.2099C118.185 17.781 118.995 18.5791 119.574 19.604C120.153 20.6289 120.446 21.7986 120.454 23.113C120.446 24.4118 120.153 25.5735 119.574 26.5985C119.003 27.6155 118.197 28.4136 117.156 28.9926C116.116 29.5637 114.938 29.8493 113.624 29.8493ZM113.624 26.9037C114.312 26.9037 114.923 26.7472 115.455 26.4342C115.987 26.1134 116.397 25.6674 116.687 25.0963C116.976 24.5173 117.121 23.8563 117.121 23.113C117.121 22.3619 116.976 21.6969 116.687 21.1179C116.397 20.5389 115.987 20.093 115.455 19.78C114.923 19.4592 114.312 19.2989 113.624 19.2989C112.943 19.2989 112.337 19.4592 111.805 19.78C111.281 20.093 110.874 20.5389 110.584 21.1179C110.295 21.6969 110.154 22.3619 110.162 23.113C110.162 23.8563 110.306 24.5173 110.596 25.0963C110.893 25.6674 111.3 26.1134 111.817 26.4342C112.341 26.7472 112.943 26.9037 113.624 26.9037ZM123.916 16.6348H120.348L124.209 29.5676H127.331L129.871 21.3075L132.613 29.5676H135.687L139.56 16.6348H136.333L134.136 24.6847L131.709 16.6348H128.587L126.171 24.8621L123.916 16.6348Z" fill="black" fill-opacity="0.2"/>
<path fill-rule="evenodd" clip-rule="evenodd" d="M102.275 29.5676H105.479V11.1777H102.275V29.5676ZM84.6132 29.3798C85.3096 29.6694 86.0176 29.814 86.7375 29.814C87.9267 29.814 88.9906 29.5246 89.9295 28.9456C90.8684 28.3667 91.5959 27.5686 92.1124 26.5516C92.6288 25.5266 92.8869 24.3648 92.8869 23.066C92.8869 21.7672 92.6209 20.6054 92.0889 19.5805C91.5569 18.5556 90.8176 17.7615 89.8708 17.1982C88.9242 16.627 87.8484 16.3454 86.6435 16.3532C85.8768 16.3532 85.1414 16.5018 84.4373 16.7991C83.733 17.0964 83.1463 17.5189 82.6768 18.0666C82.6406 18.1083 82.6054 18.1504 82.5712 18.1929V11.1895H79.3556V29.5677H82.5478L82.5413 27.8508C82.624 27.952 82.7121 28.0509 82.806 28.1475C83.3145 28.6718 83.917 29.0826 84.6132 29.3798ZM87.8992 26.4107C87.3751 26.7314 86.7765 26.8919 86.1037 26.8919C85.4387 26.8919 84.8284 26.7276 84.2729 26.399C83.7174 26.0625 83.2754 25.6049 82.9468 25.0259C82.626 24.447 82.4657 23.7898 82.4657 23.0543C82.4578 22.3188 82.6143 21.6616 82.935 21.0827C83.2636 20.4959 83.7057 20.0421 84.2612 19.7213C84.8167 19.3927 85.4308 19.2324 86.1037 19.2402C86.7765 19.2324 87.3751 19.3888 87.8992 19.7096C88.4313 20.0226 88.8381 20.4724 89.1198 21.0592C89.4092 21.6382 89.554 22.3033 89.554 23.0543C89.554 23.8054 89.4092 24.4704 89.1198 25.0494C88.8381 25.6283 88.4313 26.0821 87.8992 26.4107ZM42.1799 12.2926H45.8415L49.1169 24.2545L52.6013 12.2926H55.6525L59.4315 24.0144L62.5766 12.2926H65.933L60.9805 29.5676H57.8236L53.9811 18.1164L50.4536 29.5676H47.2614L42.1799 12.2926ZM71.3402 29.8728C70.0648 29.8805 68.9148 29.5988 67.8898 29.0278C66.8728 28.4488 66.0708 27.6468 65.484 26.622C64.9051 25.597 64.6155 24.4274 64.6155 23.113C64.6155 21.8377 64.9129 20.6837 65.5075 19.6509C66.102 18.6182 66.908 17.8123 67.925 17.2334C68.9421 16.6544 70.0765 16.3649 71.3284 16.3649C72.7367 16.3649 73.969 16.6779 75.0252 17.3038C76.0892 17.9297 76.8833 18.8177 77.4075 19.9678C77.9395 21.1101 78.1312 22.4206 77.9826 23.8992H67.93C67.9581 24.4883 68.1051 25.0244 68.371 25.507C68.6683 26.039 69.083 26.4537 69.6149 26.751C70.1469 27.0483 70.7416 27.1969 71.3988 27.1969C71.8995 27.1892 72.365 27.1031 72.7953 26.9388C73.2256 26.7667 73.5894 26.5359 73.8868 26.2465C74.1919 25.9569 74.407 25.6283 74.5322 25.2607H77.8887C77.6853 26.1603 77.2784 26.9623 76.6682 27.6664C76.0579 28.3627 75.2911 28.9065 74.3679 29.2977C73.4447 29.6888 72.4354 29.8805 71.3402 29.8728ZM68.3828 20.6719C68.1952 20.9989 68.0654 21.351 67.993 21.7282H74.6566C74.6082 21.2516 74.4612 20.8174 74.2153 20.4255C73.9338 19.9639 73.5504 19.6079 73.0653 19.3575C72.5802 19.0994 72.0326 18.9703 71.4223 18.9703C70.7729 18.9703 70.1823 19.1189 69.6502 19.4162C69.1182 19.7135 68.6956 20.1321 68.3828 20.6719ZM95.2457 16.6348C95.2457 15.5864 95.4845 14.6554 95.9617 13.8417C96.439 13.0202 97.1079 12.3826 97.9685 11.9288C98.8369 11.4672 99.8501 11.2286 101.008 11.2129V14.0647C100.468 14.0725 100.007 14.186 99.6232 14.4051C99.2477 14.6163 98.9582 14.9253 98.7548 15.3322C98.5674 15.7067 98.4664 16.1409 98.4516 16.6348H100.938V19.3458H98.4496V29.5676H95.2457V19.3458H93.1803V16.6348H95.2457ZM113.624 29.8493C112.317 29.8493 111.148 29.5637 110.115 28.9926C109.09 28.4136 108.284 27.6155 107.697 26.5985C107.118 25.5735 106.829 24.4118 106.829 23.113C106.829 21.8064 107.118 20.6406 107.697 19.6157C108.284 18.583 109.09 17.781 110.115 17.2099C111.148 16.6388 112.317 16.3532 113.624 16.3532C114.938 16.3532 116.112 16.6388 117.145 17.2099C118.185 17.781 118.995 18.5791 119.574 19.604C120.153 20.6289 120.446 21.7986 120.454 23.113C120.446 24.4118 120.153 25.5735 119.574 26.5985C119.003 27.6155 118.197 28.4136 117.156 28.9926C116.116 29.5637 114.938 29.8493 113.624 29.8493ZM113.624 26.9037C114.312 26.9037 114.923 26.7472 115.455 26.4342C115.987 26.1134 116.397 25.6674 116.687 25.0963C116.976 24.5173 117.121 23.8563 117.121 23.113C117.121 22.3619 116.976 21.6969 116.687 21.1179C116.397 20.5389 115.987 20.093 115.455 19.78C114.923 19.4592 114.312 19.2989 113.624 19.2989C112.943 19.2989 112.337 19.4592 111.805 19.78C111.281 20.093 110.874 20.5389 110.584 21.1179C110.295 21.6969 110.154 22.3619 110.162 23.113C110.162 23.8563 110.306 24.5173 110.596 25.0963C110.893 25.6674 111.3 26.1134 111.817 26.4342C112.341 26.7472 112.943 26.9037 113.624 26.9037ZM123.916 16.6348H120.348L124.209 29.5676H127.331L129.871 21.3075L132.613 29.5676H135.687L139.56 16.6348H136.333L134.136 24.6847L131.709 16.6348H128.587L126.171 24.8621L123.916 16.6348Z" fill="black" fill-opacity="0.2"/>
<path d="M102.275 29.5676H105.479V11.1777H102.275V29.5676ZM84.6132 29.3798C85.3096 29.6694 86.0176 29.814 86.7375 29.814C87.9267 29.814 88.9906 29.5246 89.9295 28.9456C90.8684 28.3667 91.5959 27.5686 92.1124 26.5516C92.6288 25.5266 92.8869 24.3648 92.8869 23.066C92.8869 21.7672 92.6209 20.6054 92.0889 19.5805C91.5569 18.5556 90.8176 17.7615 89.8708 17.1982C88.9242 16.627 87.8484 16.3454 86.6435 16.3532C85.8768 16.3532 85.1414 16.5018 84.4373 16.7991C83.733 17.0964 83.1463 17.5189 82.6768 18.0666C82.6406 18.1083 82.6054 18.1504 82.5712 18.1929V11.1895H79.3556V29.5677H82.5478L82.5413 27.8508C82.624 27.952 82.7121 28.0509 82.806 28.1475C83.3145 28.6718 83.917 29.0826 84.6132 29.3798ZM87.8992 26.4107C87.3751 26.7314 86.7765 26.8919 86.1037 26.8919C85.4387 26.8919 84.8284 26.7276 84.2729 26.399C83.7174 26.0625 83.2754 25.6049 82.9468 25.0259C82.626 24.447 82.4657 23.7898 82.4657 23.0543C82.4578 22.3188 82.6143 21.6616 82.935 21.0827C83.2636 20.4959 83.7057 20.0421 84.2612 19.7213C84.8167 19.3927 85.4308 19.2324 86.1037 19.2402C86.7765 19.2324 87.3751 19.3888 87.8992 19.7096C88.4313 20.0226 88.8381 20.4724 89.1198 21.0592C89.4092 21.6382 89.554 22.3033 89.554 23.0543C89.554 23.8054 89.4092 24.4704 89.1198 25.0494C88.8381 25.6283 88.4313 26.0821 87.8992 26.4107ZM42.1799 12.2926H45.8415L49.1169 24.2545L52.6013 12.2926H55.6525L59.4315 24.0144L62.5766 12.2926H65.933L60.9805 29.5676H57.8236L53.9811 18.1164L50.4536 29.5676H47.2614L42.1799 12.2926ZM71.3402 29.8728C70.0648 29.8805 68.9148 29.5988 67.8898 29.0278C66.8728 28.4488 66.0708 27.6468 65.484 26.622C64.9051 25.597 64.6155 24.4274 64.6155 23.113C64.6155 21.8377 64.9129 20.6837 65.5075 19.6509C66.102 18.6182 66.908 17.8123 67.925 17.2334C68.9421 16.6544 70.0765 16.3649 71.3284 16.3649C72.7367 16.3649 73.969 16.6779 75.0252 17.3038C76.0892 17.9297 76.8833 18.8177 77.4075 19.9678C77.9395 21.1101 78.1312 22.4206 77.9826 23.8992H67.93C67.9581 24.4883 68.1051 25.0244 68.371 25.507C68.6683 26.039 69.083 26.4537 69.6149 26.751C70.1469 27.0483 70.7416 27.1969 71.3988 27.1969C71.8995 27.1892 72.365 27.1031 72.7953 26.9388C73.2256 26.7667 73.5894 26.5359 73.8868 26.2465C74.1919 25.9569 74.407 25.6283 74.5322 25.2607H77.8887C77.6853 26.1603 77.2784 26.9623 76.6682 27.6664C76.0579 28.3627 75.2911 28.9065 74.3679 29.2977C73.4447 29.6888 72.4354 29.8805 71.3402 29.8728ZM68.3828 20.6719C68.1952 20.9989 68.0654 21.351 67.993 21.7282H74.6566C74.6082 21.2516 74.4612 20.8174 74.2153 20.4255C73.9338 19.9639 73.5504 19.6079 73.0653 19.3575C72.5802 19.0994 72.0326 18.9703 71.4223 18.9703C70.7729 18.9703 70.1823 19.1189 69.6502 19.4162C69.1182 19.7135 68.6956 20.1321 68.3828 20.6719ZM95.2457 16.6348C95.2457 15.5864 95.4845 14.6554 95.9617 13.8417C96.439 13.0202 97.1079 12.3826 97.9685 11.9288C98.8369 11.4672 99.8501 11.2286 101.008 11.2129V14.0647C100.468 14.0725 100.007 14.186 99.6232 14.4051C99.2477 14.6163 98.9582 14.9253 98.7548 15.3322C98.5674 15.7067 98.4664 16.1409 98.4516 16.6348H100.938V19.3458H98.4496V29.5676H95.2457V19.3458H93.1803V16.6348H95.2457ZM113.624 29.8493C112.317 29.8493 111.148 29.5637 110.115 28.9926C109.09 28.4136 108.284 27.6155 107.697 26.5985C107.118 25.5735 106.829 24.4118 106.829 23.113C106.829 21.8064 107.118 20.6406 107.697 19.6157C108.284 18.583 109.09 17.781 110.115 17.2099C111.148 16.6388 112.317 16.3532 113.624 16.3532C114.938 16.3532 116.112 16.6388 117.145 17.2099C118.185 17.781 118.995 18.5791 119.574 19.604C120.153 20.6289 120.446 21.7986 120.454 23.113C120.446 24.4118 120.153 25.5735 119.574 26.5985C119.003 27.6155 118.197 28.4136 117.156 28.9926C116.116 29.5637 114.938 29.8493 113.624 29.8493ZM113.624 26.9037C114.312 26.9037 114.923 26.7472 115.455 26.4342C115.987 26.1134 116.397 25.6674 116.687 25.0963C116.976 24.5173 117.121 23.8563 117.121 23.113C117.121 22.3619 116.976 21.6969 116.687 21.1179C116.397 20.5389 115.987 20.093 115.455 19.78C114.923 19.4592 114.312 19.2989 113.624 19.2989C112.943 19.2989 112.337 19.4592 111.805 19.78C111.281 20.093 110.874 20.5389 110.584 21.1179C110.295 21.6969 110.154 22.3619 110.162 23.113C110.162 23.8563 110.306 24.5173 110.596 25.0963C110.893 25.6674 111.3 26.1134 111.817 26.4342C112.341 26.7472 112.943 26.9037 113.624 26.9037ZM123.916 16.6348H120.348L124.209 29.5676H127.331L129.871 21.3075L132.613 29.5676H135.687L139.56 16.6348H136.333L134.136 24.6847L131.709 16.6348H128.587L126.171 24.8621L123.916 16.6348Z" fill="black" fill-opacity="0.2"/>
</g>
<defs>
<clipPath id="clip0_1_52">
<rect width="140" height="40" fill="white" transform="translate(0.333252 0.5)"/>
</clipPath>
</defs>
</svg>
