<svg width="117" height="41" viewBox="0 0 117 41" fill="none" xmlns="http://www.w3.org/2000/svg">
<g clip-path="url(#clip0_1_41)">
<path d="M17.5618 3.06641C7.89689 3.06641 0.0615234 10.9016 0.0615234 20.5665C0.0615234 30.2319 7.89689 38.0664 17.5618 38.0664C27.2278 38.0664 35.0624 30.2319 35.0624 20.5665C35.0624 10.9022 27.2278 3.06724 17.5616 3.06724L17.5618 3.06641ZM25.5874 28.3066C25.2739 28.8207 24.601 28.9837 24.0869 28.6681C19.978 26.1583 14.8054 25.5899 8.71378 26.9817C8.12676 27.1154 7.54163 26.7476 7.40789 26.1604C7.27351 25.5732 7.63985 24.988 8.22833 24.8543C14.8947 23.3313 20.6129 23.987 25.2258 26.8061C25.7399 27.1217 25.9029 27.7925 25.5874 28.3066ZM27.7294 23.5415C27.3344 24.1835 26.4943 24.3862 25.8528 23.9912C21.1487 21.0998 13.9781 20.2624 8.41411 21.9514C7.69251 22.1694 6.93037 21.7627 6.71137 21.0423C6.49403 20.3208 6.90091 19.5601 7.62125 19.3407C13.9769 17.4122 21.878 18.3463 27.2801 21.6659C27.9216 22.0609 28.1244 22.9008 27.7294 23.5415ZM27.9133 18.5796C22.273 15.2295 12.9673 14.9214 7.58217 16.5558C6.71743 16.8181 5.80294 16.3299 5.54089 15.4652C5.27883 14.6 5.76658 13.6862 6.63195 13.4233C12.8137 11.5467 23.0901 11.9092 29.5838 15.7642C30.3633 16.2259 30.6183 17.2304 30.1564 18.0072C29.6967 18.785 28.6886 19.0414 27.9133 18.5796ZM47.6741 19.2215C44.6523 18.501 44.1152 17.9953 44.1152 16.9326C44.1152 15.9287 45.0598 15.2531 46.4662 15.2531C47.8287 15.2531 49.1787 15.7661 50.5956 16.8223C50.6374 16.8543 50.6917 16.867 50.744 16.8586C50.7983 16.8507 50.8443 16.8217 50.8756 16.778L52.351 14.6982C52.4116 14.6126 52.3949 14.4945 52.3134 14.4291C50.6269 13.0764 48.7294 12.4187 46.5101 12.4187C43.248 12.4187 40.968 14.3766 40.968 17.178C40.968 20.182 42.9345 21.2457 46.3325 22.0667C49.2226 22.7328 49.7116 23.2907 49.7116 24.288C49.7116 25.3934 48.7253 26.081 47.137 26.081C45.3733 26.081 43.9334 25.4854 42.3243 24.0936C42.2846 24.0581 42.2303 24.0435 42.1801 24.0455C42.1258 24.0497 42.0777 24.0748 42.0443 24.1145L40.3892 26.0831C40.3202 26.1667 40.3286 26.2879 40.408 26.3589C42.2804 28.0307 44.5833 28.9126 47.0702 28.9126C50.5851 28.9126 52.8567 26.9921 52.8567 24.0184C52.863 21.5092 51.3605 20.1195 47.6804 19.2243L47.6741 19.2215ZM60.8104 16.2415C59.2869 16.2415 58.0373 16.8417 57.0049 18.0715V16.6873C57.0049 16.578 56.9171 16.489 56.8085 16.489H54.1022C53.9936 16.489 53.9058 16.578 53.9058 16.6873V32.0682C53.9058 32.1768 53.9936 32.2667 54.1022 32.2667H56.8085C56.9171 32.2667 57.0049 32.1768 57.0049 32.0682V27.2136C58.0373 28.3693 59.2869 28.9356 60.8104 28.9356C63.642 28.9356 66.5092 26.756 66.5092 22.5892C66.5133 18.4216 63.6462 16.2413 60.8125 16.2413L60.8104 16.2415ZM63.362 22.5892C63.362 24.7101 62.0559 26.1917 60.1834 26.1917C58.334 26.1917 56.938 24.6432 56.938 22.5892C56.938 20.535 58.334 18.9869 60.1834 18.9869C62.0245 18.9866 63.362 20.5015 63.362 22.5892ZM73.8547 16.2415C70.2081 16.2415 67.3513 19.0493 67.3513 22.6345C67.3513 26.1813 70.1892 28.9586 73.8108 28.9586C77.47 28.9586 80.3351 26.1604 80.3351 22.5892C80.3351 19.0301 77.4888 16.2415 73.8547 16.2415ZM73.8547 26.2126C71.9154 26.2126 70.4526 24.6537 70.4526 22.5881C70.4526 20.5132 71.8652 19.0075 73.8108 19.0075C75.7626 19.0075 77.2338 20.5659 77.2338 22.6335C77.2338 24.708 75.8128 26.2126 73.8547 26.2126ZM88.1215 16.489H85.1436V13.445C85.1436 13.3359 85.0558 13.2469 84.9472 13.2469H82.2409C82.1322 13.2469 82.0424 13.3359 82.0424 13.445V16.489H80.7426C80.6339 16.489 80.5461 16.578 80.5461 16.6873V19.0126C80.5461 19.1216 80.6339 19.2109 80.7426 19.2109H82.0424V25.2284C82.0424 27.6588 83.2524 28.8917 85.641 28.8917C86.6106 28.8917 87.4152 28.6911 88.1738 28.2606C88.2365 28.2272 88.2741 28.1603 88.2741 28.0892V25.8741C88.2741 25.8072 88.2385 25.7424 88.18 25.7069C88.1215 25.6693 88.0484 25.6672 87.9878 25.6986C87.4674 25.9598 86.9638 26.081 86.3996 26.081C85.5323 26.081 85.1436 25.686 85.1436 24.8041V19.2119H88.1215C88.2302 19.2119 88.3179 19.1229 88.3179 19.0136V16.6885C88.3221 16.5792 88.2344 16.4902 88.1236 16.4902L88.1215 16.489ZM98.4951 16.5009V16.127C98.4951 15.0272 98.9172 14.5367 99.8618 14.5367C100.426 14.5367 100.88 14.6487 101.387 14.818C101.45 14.8376 101.515 14.8278 101.565 14.7904C101.617 14.753 101.646 14.693 101.646 14.6295V12.3496C101.646 12.2624 101.592 12.1853 101.506 12.1596C100.971 12.0001 100.286 11.8365 99.2579 11.8365C96.7606 11.8365 95.4378 13.2438 95.4378 15.9047V16.4773H94.1379C94.0293 16.4773 93.9394 16.5663 93.9394 16.6754V19.0126C93.9394 19.1216 94.0293 19.2109 94.1379 19.2109H95.4378V28.4905C95.4378 28.6012 95.5276 28.689 95.6363 28.689H98.3405C98.4512 28.689 98.539 28.6012 98.539 28.4905V19.2115H101.066L104.936 28.4905C104.497 29.4643 104.064 29.6587 103.475 29.6587C102.999 29.6587 102.495 29.5166 101.983 29.2344C101.935 29.2094 101.876 29.2052 101.826 29.2198C101.774 29.2386 101.73 29.2762 101.709 29.3264L100.792 31.3388C100.748 31.435 100.785 31.5457 100.877 31.5959C101.835 32.1141 102.698 32.3356 103.765 32.3356C105.763 32.3356 106.869 31.4036 107.841 28.9001L112.534 16.7717C112.559 16.7107 112.551 16.6417 112.513 16.5876C112.478 16.5339 112.417 16.5015 112.352 16.5015H109.535C109.45 16.5015 109.374 16.5552 109.347 16.6344L106.461 24.8752L103.302 16.629C103.272 16.5523 103.199 16.5015 103.118 16.5015L98.4951 16.5009ZM92.4808 16.489H89.7745C89.6658 16.489 89.576 16.578 89.576 16.6873V28.4905C89.576 28.6012 89.6658 28.689 89.7745 28.689H92.4808C92.5894 28.689 92.6793 28.6012 92.6793 28.4905V16.6881C92.6793 16.5788 92.5915 16.4898 92.4808 16.4898V16.489ZM91.1433 11.1143C90.0713 11.1143 89.2019 11.982 89.2019 13.0538C89.2019 14.1263 90.0713 14.995 91.1433 14.995C92.2154 14.995 93.0826 14.1263 93.0826 13.0538C93.0826 11.9822 92.2133 11.1143 91.1433 11.1143ZM114.845 20.2842C113.775 20.2842 112.942 19.4242 112.942 18.38C112.942 17.3357 113.786 16.466 114.856 16.466C115.926 16.466 116.76 17.3257 116.76 18.3691C116.76 19.4134 115.915 20.2842 114.845 20.2842ZM114.856 16.6553C113.88 16.6553 113.142 17.4306 113.142 18.38C113.142 19.329 113.876 20.0938 114.845 20.0938C115.821 20.0938 116.559 19.3191 116.559 18.3691C116.559 17.4202 115.826 16.6553 114.856 16.6553ZM115.278 18.5649L115.817 19.3189H115.362L114.877 18.6272H114.461V19.3189H114.081V17.3203H114.971C115.437 17.3203 115.742 17.5579 115.742 17.9579C115.744 18.2855 115.554 18.4857 115.28 18.5649H115.278ZM114.956 17.6632H114.461V18.2954H114.956C115.203 18.2954 115.351 18.1744 115.351 17.979C115.351 17.7733 115.203 17.6632 114.956 17.6632Z" fill="white"/>
<path d="M17.5618 3.06641C7.89689 3.06641 0.0615234 10.9016 0.0615234 20.5665C0.0615234 30.2319 7.89689 38.0664 17.5618 38.0664C27.2278 38.0664 35.0624 30.2319 35.0624 20.5665C35.0624 10.9022 27.2278 3.06724 17.5616 3.06724L17.5618 3.06641ZM25.5874 28.3066C25.2739 28.8207 24.601 28.9837 24.0869 28.6681C19.978 26.1583 14.8054 25.5899 8.71378 26.9817C8.12676 27.1154 7.54163 26.7476 7.40789 26.1604C7.27351 25.5732 7.63985 24.988 8.22833 24.8543C14.8947 23.3313 20.6129 23.987 25.2258 26.8061C25.7399 27.1217 25.9029 27.7925 25.5874 28.3066ZM27.7294 23.5415C27.3344 24.1835 26.4943 24.3862 25.8528 23.9912C21.1487 21.0998 13.9781 20.2624 8.41411 21.9514C7.69251 22.1694 6.93037 21.7627 6.71137 21.0423C6.49403 20.3208 6.90091 19.5601 7.62125 19.3407C13.9769 17.4122 21.878 18.3463 27.2801 21.6659C27.9216 22.0609 28.1244 22.9008 27.7294 23.5415ZM27.9133 18.5796C22.273 15.2295 12.9673 14.9214 7.58217 16.5558C6.71743 16.8181 5.80294 16.3299 5.54089 15.4652C5.27883 14.6 5.76658 13.6862 6.63195 13.4233C12.8137 11.5467 23.0901 11.9092 29.5838 15.7642C30.3633 16.2259 30.6183 17.2304 30.1564 18.0072C29.6967 18.785 28.6886 19.0414 27.9133 18.5796ZM47.6741 19.2215C44.6523 18.501 44.1152 17.9953 44.1152 16.9326C44.1152 15.9287 45.0598 15.2531 46.4662 15.2531C47.8287 15.2531 49.1787 15.7661 50.5956 16.8223C50.6374 16.8543 50.6917 16.867 50.744 16.8586C50.7983 16.8507 50.8443 16.8217 50.8756 16.778L52.351 14.6982C52.4116 14.6126 52.3949 14.4945 52.3134 14.4291C50.6269 13.0764 48.7294 12.4187 46.5101 12.4187C43.248 12.4187 40.968 14.3766 40.968 17.178C40.968 20.182 42.9345 21.2457 46.3325 22.0667C49.2226 22.7328 49.7116 23.2907 49.7116 24.288C49.7116 25.3934 48.7253 26.081 47.137 26.081C45.3733 26.081 43.9334 25.4854 42.3243 24.0936C42.2846 24.0581 42.2303 24.0435 42.1801 24.0455C42.1258 24.0497 42.0777 24.0748 42.0443 24.1145L40.3892 26.0831C40.3202 26.1667 40.3286 26.2879 40.408 26.3589C42.2804 28.0307 44.5833 28.9126 47.0702 28.9126C50.5851 28.9126 52.8567 26.9921 52.8567 24.0184C52.863 21.5092 51.3605 20.1195 47.6804 19.2243L47.6741 19.2215ZM60.8104 16.2415C59.2869 16.2415 58.0373 16.8417 57.0049 18.0715V16.6873C57.0049 16.578 56.9171 16.489 56.8085 16.489H54.1022C53.9936 16.489 53.9058 16.578 53.9058 16.6873V32.0682C53.9058 32.1768 53.9936 32.2667 54.1022 32.2667H56.8085C56.9171 32.2667 57.0049 32.1768 57.0049 32.0682V27.2136C58.0373 28.3693 59.2869 28.9356 60.8104 28.9356C63.642 28.9356 66.5092 26.756 66.5092 22.5892C66.5133 18.4216 63.6462 16.2413 60.8125 16.2413L60.8104 16.2415ZM63.362 22.5892C63.362 24.7101 62.0559 26.1917 60.1834 26.1917C58.334 26.1917 56.938 24.6432 56.938 22.5892C56.938 20.535 58.334 18.9869 60.1834 18.9869C62.0245 18.9866 63.362 20.5015 63.362 22.5892ZM73.8547 16.2415C70.2081 16.2415 67.3513 19.0493 67.3513 22.6345C67.3513 26.1813 70.1892 28.9586 73.8108 28.9586C77.47 28.9586 80.3351 26.1604 80.3351 22.5892C80.3351 19.0301 77.4888 16.2415 73.8547 16.2415ZM73.8547 26.2126C71.9154 26.2126 70.4526 24.6537 70.4526 22.5881C70.4526 20.5132 71.8652 19.0075 73.8108 19.0075C75.7626 19.0075 77.2338 20.5659 77.2338 22.6335C77.2338 24.708 75.8128 26.2126 73.8547 26.2126ZM88.1215 16.489H85.1436V13.445C85.1436 13.3359 85.0558 13.2469 84.9472 13.2469H82.2409C82.1322 13.2469 82.0424 13.3359 82.0424 13.445V16.489H80.7426C80.6339 16.489 80.5461 16.578 80.5461 16.6873V19.0126C80.5461 19.1216 80.6339 19.2109 80.7426 19.2109H82.0424V25.2284C82.0424 27.6588 83.2524 28.8917 85.641 28.8917C86.6106 28.8917 87.4152 28.6911 88.1738 28.2606C88.2365 28.2272 88.2741 28.1603 88.2741 28.0892V25.8741C88.2741 25.8072 88.2385 25.7424 88.18 25.7069C88.1215 25.6693 88.0484 25.6672 87.9878 25.6986C87.4674 25.9598 86.9638 26.081 86.3996 26.081C85.5323 26.081 85.1436 25.686 85.1436 24.8041V19.2119H88.1215C88.2302 19.2119 88.3179 19.1229 88.3179 19.0136V16.6885C88.3221 16.5792 88.2344 16.4902 88.1236 16.4902L88.1215 16.489ZM98.4951 16.5009V16.127C98.4951 15.0272 98.9172 14.5367 99.8618 14.5367C100.426 14.5367 100.88 14.6487 101.387 14.818C101.45 14.8376 101.515 14.8278 101.565 14.7904C101.617 14.753 101.646 14.693 101.646 14.6295V12.3496C101.646 12.2624 101.592 12.1853 101.506 12.1596C100.971 12.0001 100.286 11.8365 99.2579 11.8365C96.7606 11.8365 95.4378 13.2438 95.4378 15.9047V16.4773H94.1379C94.0293 16.4773 93.9394 16.5663 93.9394 16.6754V19.0126C93.9394 19.1216 94.0293 19.2109 94.1379 19.2109H95.4378V28.4905C95.4378 28.6012 95.5276 28.689 95.6363 28.689H98.3405C98.4512 28.689 98.539 28.6012 98.539 28.4905V19.2115H101.066L104.936 28.4905C104.497 29.4643 104.064 29.6587 103.475 29.6587C102.999 29.6587 102.495 29.5166 101.983 29.2344C101.935 29.2094 101.876 29.2052 101.826 29.2198C101.774 29.2386 101.73 29.2762 101.709 29.3264L100.792 31.3388C100.748 31.435 100.785 31.5457 100.877 31.5959C101.835 32.1141 102.698 32.3356 103.765 32.3356C105.763 32.3356 106.869 31.4036 107.841 28.9001L112.534 16.7717C112.559 16.7107 112.551 16.6417 112.513 16.5876C112.478 16.5339 112.417 16.5015 112.352 16.5015H109.535C109.45 16.5015 109.374 16.5552 109.347 16.6344L106.461 24.8752L103.302 16.629C103.272 16.5523 103.199 16.5015 103.118 16.5015L98.4951 16.5009ZM92.4808 16.489H89.7745C89.6658 16.489 89.576 16.578 89.576 16.6873V28.4905C89.576 28.6012 89.6658 28.689 89.7745 28.689H92.4808C92.5894 28.689 92.6793 28.6012 92.6793 28.4905V16.6881C92.6793 16.5788 92.5915 16.4898 92.4808 16.4898V16.489ZM91.1433 11.1143C90.0713 11.1143 89.2019 11.982 89.2019 13.0538C89.2019 14.1263 90.0713 14.995 91.1433 14.995C92.2154 14.995 93.0826 14.1263 93.0826 13.0538C93.0826 11.9822 92.2133 11.1143 91.1433 11.1143ZM114.845 20.2842C113.775 20.2842 112.942 19.4242 112.942 18.38C112.942 17.3357 113.786 16.466 114.856 16.466C115.926 16.466 116.76 17.3257 116.76 18.3691C116.76 19.4134 115.915 20.2842 114.845 20.2842ZM114.856 16.6553C113.88 16.6553 113.142 17.4306 113.142 18.38C113.142 19.329 113.876 20.0938 114.845 20.0938C115.821 20.0938 116.559 19.3191 116.559 18.3691C116.559 17.4202 115.826 16.6553 114.856 16.6553ZM115.278 18.5649L115.817 19.3189H115.362L114.877 18.6272H114.461V19.3189H114.081V17.3203H114.971C115.437 17.3203 115.742 17.5579 115.742 17.9579C115.744 18.2855 115.554 18.4857 115.28 18.5649H115.278ZM114.956 17.6632H114.461V18.2954H114.956C115.203 18.2954 115.351 18.1744 115.351 17.979C115.351 17.7733 115.203 17.6632 114.956 17.6632Z" fill="#212121"/>
</g>
<defs>
<clipPath id="clip0_1_41">
<rect width="116.667" height="40" fill="white" transform="translate(0 0.5)"/>
</clipPath>
</defs>
</svg>
