<svg width="102" height="41" viewBox="0 0 102 41" fill="none" xmlns="http://www.w3.org/2000/svg">
<g clip-path="url(#clip0_1_43)">
<path d="M32.2696 27.5227L33.493 24.6631C34.8326 25.6552 36.5798 26.1802 38.3274 26.1802C39.6089 26.1802 40.4243 25.6844 40.4243 24.9259C40.395 22.8249 32.7065 24.4589 32.648 19.1767C32.6188 16.4922 35.0072 14.4204 38.3859 14.4204C40.395 14.4204 42.405 14.9166 43.8318 16.0549L42.6886 18.9754C41.3758 18.1312 39.7543 17.5427 38.2109 17.5427C37.1625 17.5427 36.4633 18.0385 36.4633 18.6809C36.4925 20.7527 44.2399 19.6145 44.3272 24.6631C44.3272 27.4062 41.9969 29.3321 38.6766 29.3321C36.2306 29.3321 33.9884 28.7486 32.2696 27.5227ZM80.9846 23.6277C80.6758 24.1764 80.2266 24.6331 79.6831 24.9509C79.1395 25.2687 78.5212 25.4363 77.8916 25.4363C75.9293 25.4363 74.3387 23.8424 74.3387 21.8763C74.3387 19.9102 75.9293 18.3163 77.8916 18.3163C78.5212 18.3163 79.1395 18.4838 79.6831 18.8017C80.2266 19.1195 80.6758 19.5762 80.9846 20.1249L84.3859 18.2369C83.112 15.96 80.6818 14.4204 77.8916 14.4204C73.7819 14.4204 70.4503 17.7582 70.4503 21.8763C70.4503 25.9939 73.7819 29.3321 77.8916 29.3321C80.6818 29.3321 83.112 27.7925 84.3859 25.5157L80.9846 23.6277ZM46.5343 29.0402H50.7865V8.21387H46.5347L46.5343 29.0402ZM86.5333 8.21387V29.0402H90.7854V22.8006L95.8241 29.0402H101.259L94.8517 21.6278L100.793 14.7111H95.591L90.7854 20.4615V8.21387H86.5333ZM63.8867 14.712V16.4049C63.1879 15.2374 61.4695 14.4204 59.6638 14.4204C55.9358 14.4204 52.9944 17.7181 52.9944 21.8617C52.9944 26.0052 55.9358 29.3321 59.6638 29.3321C61.4695 29.3321 63.1879 28.5151 63.8867 27.3477V29.0402H68.1388V14.712H63.8867ZM63.8867 23.6565C63.2752 24.6778 61.9937 25.4359 60.5668 25.4359C58.6041 25.4359 57.0135 23.8424 57.0135 21.8763C57.0135 19.9102 58.6041 18.3163 60.5668 18.3163C61.9937 18.3163 63.2752 19.104 63.8867 20.1541V23.6565Z" fill="white"/>
<path d="M32.2696 27.5227L33.493 24.6631C34.8326 25.6552 36.5798 26.1802 38.3274 26.1802C39.6089 26.1802 40.4243 25.6844 40.4243 24.9259C40.395 22.8249 32.7065 24.4589 32.648 19.1767C32.6188 16.4922 35.0072 14.4204 38.3859 14.4204C40.395 14.4204 42.405 14.9166 43.8318 16.0549L42.6886 18.9754C41.3758 18.1312 39.7543 17.5427 38.2109 17.5427C37.1625 17.5427 36.4633 18.0385 36.4633 18.6809C36.4925 20.7527 44.2399 19.6145 44.3272 24.6631C44.3272 27.4062 41.9969 29.3321 38.6766 29.3321C36.2306 29.3321 33.9884 28.7486 32.2696 27.5227ZM80.9846 23.6277C80.6758 24.1764 80.2266 24.6331 79.6831 24.9509C79.1395 25.2687 78.5212 25.4363 77.8916 25.4363C75.9293 25.4363 74.3387 23.8424 74.3387 21.8763C74.3387 19.9102 75.9293 18.3163 77.8916 18.3163C78.5212 18.3163 79.1395 18.4838 79.6831 18.8017C80.2266 19.1195 80.6758 19.5762 80.9846 20.1249L84.3859 18.2369C83.112 15.96 80.6818 14.4204 77.8916 14.4204C73.7819 14.4204 70.4503 17.7582 70.4503 21.8763C70.4503 25.9939 73.7819 29.3321 77.8916 29.3321C80.6818 29.3321 83.112 27.7925 84.3859 25.5157L80.9846 23.6277ZM46.5343 29.0402H50.7865V8.21387H46.5347L46.5343 29.0402ZM86.5333 8.21387V29.0402H90.7854V22.8006L95.8241 29.0402H101.259L94.8517 21.6278L100.793 14.7111H95.591L90.7854 20.4615V8.21387H86.5333ZM63.8867 14.712V16.4049C63.1879 15.2374 61.4695 14.4204 59.6638 14.4204C55.9358 14.4204 52.9944 17.7181 52.9944 21.8617C52.9944 26.0052 55.9358 29.3321 59.6638 29.3321C61.4695 29.3321 63.1879 28.5151 63.8867 27.3477V29.0402H68.1388V14.712H63.8867ZM63.8867 23.6565C63.2752 24.6778 61.9937 25.4359 60.5668 25.4359C58.6041 25.4359 57.0135 23.8424 57.0135 21.8763C57.0135 19.9102 58.6041 18.3163 60.5668 18.3163C61.9937 18.3163 63.2752 19.104 63.8867 20.1541V23.6565Z" fill="#212121"/>
<path d="M9.81402 7.75293C8.43605 7.75293 7.31913 8.87235 7.31913 10.2528C7.3188 10.5808 7.38307 10.9056 7.50827 11.2087C7.63347 11.5119 7.81715 11.7874 8.04883 12.0195C8.2805 12.2516 8.55563 12.4359 8.8585 12.5617C9.16137 12.6875 9.48606 12.7524 9.81402 12.7527H12.3093V10.2528C12.3099 9.59045 12.0473 8.95496 11.5794 8.48615C11.1114 8.01734 10.4764 7.75359 9.81402 7.75293ZM9.81402 14.4194H3.16055C1.78257 14.4194 0.665649 15.5388 0.665649 16.9197C0.665649 18.3002 1.78257 19.4196 3.16055 19.4196H9.81444C11.192 19.4196 12.3093 18.3002 12.3093 16.9197C12.3093 15.5388 11.192 14.4194 9.81402 14.4194Z" fill="white"/>
<path d="M9.81402 7.75293C8.43605 7.75293 7.31913 8.87235 7.31913 10.2528C7.3188 10.5808 7.38307 10.9056 7.50827 11.2087C7.63347 11.5119 7.81715 11.7874 8.04883 12.0195C8.2805 12.2516 8.55563 12.4359 8.8585 12.5617C9.16137 12.6875 9.48606 12.7524 9.81402 12.7527H12.3093V10.2528C12.3099 9.59045 12.0473 8.95496 11.5794 8.48615C11.1114 8.01734 10.4764 7.75359 9.81402 7.75293ZM9.81402 14.4194H3.16055C1.78257 14.4194 0.665649 15.5388 0.665649 16.9197C0.665649 18.3002 1.78257 19.4196 3.16055 19.4196H9.81444C11.192 19.4196 12.3093 18.3002 12.3093 16.9197C12.3093 15.5388 11.192 14.4194 9.81402 14.4194Z" fill="#212121"/>
<path d="M25.616 16.9197C25.616 15.5388 24.4986 14.4194 23.1207 14.4194C21.7427 14.4194 20.6258 15.5388 20.6258 16.9197V19.4196H23.1207C23.7831 19.4189 24.4181 19.1552 24.886 18.6864C25.354 18.2176 25.6165 17.5821 25.616 16.9197ZM18.9625 16.9197V10.2528C18.9631 9.59045 18.7005 8.95496 18.2325 8.48615C17.7646 8.01734 17.1296 7.75359 16.4672 7.75293C15.0892 7.75293 13.9723 8.87235 13.9723 10.2528V16.9193C13.9723 18.3006 15.0892 19.42 16.4672 19.42C17.1296 19.4193 17.7646 19.1556 18.2325 18.6868C18.7005 18.218 18.9631 17.5825 18.9625 16.9201" fill="white"/>
<path d="M25.616 16.9197C25.616 15.5388 24.4986 14.4194 23.1207 14.4194C21.7427 14.4194 20.6258 15.5388 20.6258 16.9197V19.4196H23.1207C23.7831 19.4189 24.4181 19.1552 24.886 18.6864C25.354 18.2176 25.6165 17.5821 25.616 16.9197ZM18.9625 16.9197V10.2528C18.9631 9.59045 18.7005 8.95496 18.2325 8.48615C17.7646 8.01734 17.1296 7.75359 16.4672 7.75293C15.0892 7.75293 13.9723 8.87235 13.9723 10.2528V16.9193C13.9723 18.3006 15.0892 19.42 16.4672 19.42C17.1296 19.4193 17.7646 19.1556 18.2325 18.6868C18.7005 18.218 18.9631 17.5825 18.9625 16.9201" fill="#212121"/>
<path d="M16.4672 32.7526C17.1296 32.7519 17.7646 32.4882 18.2325 32.0194C18.7005 31.5506 18.9631 30.9151 18.9625 30.2527C18.9631 29.5903 18.7005 28.9548 18.2325 28.486C17.7646 28.0172 17.1296 27.7534 16.4672 27.7528H13.9723V30.2527C13.9723 31.6332 15.0892 32.7526 16.4672 32.7526ZM16.4672 26.0862H23.1211C24.4986 26.0862 25.616 24.9667 25.616 23.5858C25.6165 22.9235 25.354 22.288 24.886 21.8192C24.4181 21.3503 23.7831 21.0866 23.1207 21.0859H16.4672C15.0892 21.0859 13.9723 22.2054 13.9723 23.5858C13.972 23.9138 14.0362 24.2386 14.1614 24.5418C14.2866 24.8449 14.4703 25.1204 14.702 25.3525C14.9337 25.5847 15.2088 25.7689 15.5117 25.8947C15.8145 26.0205 16.1392 26.0858 16.4672 26.0862Z" fill="white"/>
<path d="M16.4672 32.7526C17.1296 32.7519 17.7646 32.4882 18.2325 32.0194C18.7005 31.5506 18.9631 30.9151 18.9625 30.2527C18.9631 29.5903 18.7005 28.9548 18.2325 28.486C17.7646 28.0172 17.1296 27.7534 16.4672 27.7528H13.9723V30.2527C13.9723 31.6332 15.0892 32.7526 16.4672 32.7526ZM16.4672 26.0862H23.1211C24.4986 26.0862 25.616 24.9667 25.616 23.5858C25.6165 22.9235 25.354 22.288 24.886 21.8192C24.4181 21.3503 23.7831 21.0866 23.1207 21.0859H16.4672C15.0892 21.0859 13.9723 22.2054 13.9723 23.5858C13.972 23.9138 14.0362 24.2386 14.1614 24.5418C14.2866 24.8449 14.4703 25.1204 14.702 25.3525C14.9337 25.5847 15.2088 25.7689 15.5117 25.8947C15.8145 26.0205 16.1392 26.0858 16.4672 26.0862Z" fill="#212121"/>
<path d="M0.665651 23.5858C0.665321 23.9138 0.729593 24.2386 0.854795 24.5418C0.979997 24.8449 1.16368 25.1204 1.39535 25.3525C1.62702 25.5847 1.90215 25.7689 2.20502 25.8947C2.5079 26.0205 2.83258 26.0854 3.16055 26.0858C3.82294 26.0851 4.45794 25.8214 4.92589 25.3525C5.39384 24.8837 5.65642 24.2482 5.65586 23.5858V21.0859H3.16055C1.78257 21.0859 0.665651 22.2054 0.665651 23.5858ZM7.31913 23.5858V30.2523C7.31913 31.6332 8.43605 32.7526 9.81403 32.7526C10.4764 32.7519 11.1114 32.4882 11.5794 32.0194C12.0473 31.5506 12.3099 30.9151 12.3093 30.2527V23.5858C12.3097 23.2578 12.2454 22.933 12.1202 22.6298C11.9949 22.3267 11.8112 22.0512 11.5795 21.819C11.3478 21.5869 11.0726 21.4027 10.7697 21.2769C10.4668 21.1511 10.142 21.0862 9.81403 21.0859C8.43605 21.0859 7.31913 22.2054 7.31913 23.5858Z" fill="white"/>
<path d="M0.665651 23.5858C0.665321 23.9138 0.729593 24.2386 0.854795 24.5418C0.979997 24.8449 1.16368 25.1204 1.39535 25.3525C1.62702 25.5847 1.90215 25.7689 2.20502 25.8947C2.5079 26.0205 2.83258 26.0854 3.16055 26.0858C3.82294 26.0851 4.45794 25.8214 4.92589 25.3525C5.39384 24.8837 5.65642 24.2482 5.65586 23.5858V21.0859H3.16055C1.78257 21.0859 0.665651 22.2054 0.665651 23.5858ZM7.31913 23.5858V30.2523C7.31913 31.6332 8.43605 32.7526 9.81403 32.7526C10.4764 32.7519 11.1114 32.4882 11.5794 32.0194C12.0473 31.5506 12.3099 30.9151 12.3093 30.2527V23.5858C12.3097 23.2578 12.2454 22.933 12.1202 22.6298C11.9949 22.3267 11.8112 22.0512 11.5795 21.819C11.3478 21.5869 11.0726 21.4027 10.7697 21.2769C10.4668 21.1511 10.142 21.0862 9.81403 21.0859C8.43605 21.0859 7.31913 22.2054 7.31913 23.5858Z" fill="#212121"/>
</g>
<defs>
<clipPath id="clip0_1_43">
<rect width="100.833" height="40" fill="white" transform="translate(0.666626 0.5)"/>
</clipPath>
</defs>
</svg>
