<svg width="137" height="41" viewBox="0 0 137 41" fill="none" xmlns="http://www.w3.org/2000/svg">
<g clip-path="url(#clip0_1_49)">
<path d="M38.0439 12.1778H44.3957C48.4452 12.1778 51.7903 14.5208 51.7903 19.8704V20.9945C51.7903 26.3847 48.6619 28.8089 44.5176 28.8089H38.0439V12.1778ZM41.5923 15.198V25.7752H44.3145C46.6168 25.7752 48.1608 24.2719 48.1608 20.9268V20.0465C48.1608 16.7013 46.5356 15.198 44.1926 15.198H41.5923ZM53.6729 15.3605H56.5169L56.9774 18.489C57.5191 16.3627 58.9006 15.2251 61.4061 15.2251H62.2864V18.814H60.8237C57.939 18.814 57.2347 19.8162 57.2347 22.6603V28.8496H53.727V15.3605H53.6729ZM62.9906 22.3759V21.9967C62.9906 17.4868 65.8753 15.0219 69.8029 15.0219C73.8117 15.0219 76.6151 17.4868 76.6151 21.9967V22.3759C76.6151 26.8045 73.8929 29.1882 69.8029 29.1882C65.4555 29.1475 62.9906 26.8181 62.9906 22.3759ZM73.0262 22.3353V21.9967C73.0262 19.4912 71.7666 17.9879 69.7622 17.9879C67.7985 17.9879 66.4983 19.3693 66.4983 21.9967V22.3353C66.4983 24.7595 67.7578 26.1409 69.7622 26.1409C71.7666 26.1003 73.0262 24.7595 73.0262 22.3353ZM78.457 15.3605H81.3824L81.7209 17.9066C82.4252 16.2002 83.9285 15.0219 86.1496 15.0219C89.576 15.0219 91.8378 17.4868 91.8378 22.0509V22.4301C91.8378 26.8587 89.3323 29.2017 86.1496 29.2017C84.0233 29.2017 82.5606 28.2401 81.8428 26.6962V33.5084H78.4164L78.457 15.3605ZM88.2759 22.3353V22.0373C88.2759 19.3557 86.8945 18.0285 85.0526 18.0285C83.0888 18.0285 81.7887 19.5318 81.7887 22.0373V22.2946C81.7887 24.6782 83.0482 26.1815 85.0119 26.1815C87.0299 26.1409 88.2759 24.8543 88.2759 22.3353ZM97.0248 26.3576L96.7269 28.8225H93.7203V10.8506H97.1467V17.7441C97.9051 15.9835 99.4084 15.0219 101.535 15.0219C104.758 15.0625 107.142 17.2836 107.142 21.7529V22.1727C107.142 26.642 104.88 29.2017 101.453 29.2017C99.1917 29.1475 97.7291 28.1047 97.0248 26.3576ZM103.539 22.1727V21.8342C103.539 19.3693 102.198 17.9879 100.316 17.9879C98.3927 17.9879 97.0519 19.5318 97.0519 21.8748V22.1727C97.0519 24.6782 98.3521 26.1409 100.275 26.1409C102.334 26.1409 103.539 24.8543 103.539 22.1727ZM108.645 22.3759V21.9967C108.645 17.4868 111.53 15.0219 115.457 15.0219C119.466 15.0219 122.269 17.4868 122.269 21.9967V22.3759C122.269 26.8045 119.507 29.1882 115.457 29.1882C111.11 29.1475 108.645 26.8181 108.645 22.3759ZM118.708 22.3353V21.9967C118.708 19.4912 117.448 17.9879 115.444 17.9879C113.48 17.9879 112.18 19.3693 112.18 21.9967V22.3353C112.18 24.7595 113.439 26.1409 115.444 26.1409C117.462 26.1003 118.708 24.7595 118.708 22.3353ZM126.861 21.8342L122.134 15.3605H126.183L128.906 19.4099L131.668 15.3605H135.677L130.883 21.7935L135.935 28.8225H131.966L128.879 24.3532L125.872 28.8225H121.728L126.861 21.8342Z" fill="white"/>
<path d="M38.0439 12.1778H44.3957C48.4452 12.1778 51.7903 14.5208 51.7903 19.8704V20.9945C51.7903 26.3847 48.6619 28.8089 44.5176 28.8089H38.0439V12.1778ZM41.5923 15.198V25.7752H44.3145C46.6168 25.7752 48.1608 24.2719 48.1608 20.9268V20.0465C48.1608 16.7013 46.5356 15.198 44.1926 15.198H41.5923ZM53.6729 15.3605H56.5169L56.9774 18.489C57.5191 16.3627 58.9006 15.2251 61.4061 15.2251H62.2864V18.814H60.8237C57.939 18.814 57.2347 19.8162 57.2347 22.6603V28.8496H53.727V15.3605H53.6729ZM62.9906 22.3759V21.9967C62.9906 17.4868 65.8753 15.0219 69.8029 15.0219C73.8117 15.0219 76.6151 17.4868 76.6151 21.9967V22.3759C76.6151 26.8045 73.8929 29.1882 69.8029 29.1882C65.4555 29.1475 62.9906 26.8181 62.9906 22.3759ZM73.0262 22.3353V21.9967C73.0262 19.4912 71.7666 17.9879 69.7622 17.9879C67.7985 17.9879 66.4983 19.3693 66.4983 21.9967V22.3353C66.4983 24.7595 67.7578 26.1409 69.7622 26.1409C71.7666 26.1003 73.0262 24.7595 73.0262 22.3353ZM78.457 15.3605H81.3824L81.7209 17.9066C82.4252 16.2002 83.9285 15.0219 86.1496 15.0219C89.576 15.0219 91.8378 17.4868 91.8378 22.0509V22.4301C91.8378 26.8587 89.3323 29.2017 86.1496 29.2017C84.0233 29.2017 82.5606 28.2401 81.8428 26.6962V33.5084H78.4164L78.457 15.3605ZM88.2759 22.3353V22.0373C88.2759 19.3557 86.8945 18.0285 85.0526 18.0285C83.0888 18.0285 81.7887 19.5318 81.7887 22.0373V22.2946C81.7887 24.6782 83.0482 26.1815 85.0119 26.1815C87.0299 26.1409 88.2759 24.8543 88.2759 22.3353ZM97.0248 26.3576L96.7269 28.8225H93.7203V10.8506H97.1467V17.7441C97.9051 15.9835 99.4084 15.0219 101.535 15.0219C104.758 15.0625 107.142 17.2836 107.142 21.7529V22.1727C107.142 26.642 104.88 29.2017 101.453 29.2017C99.1917 29.1475 97.7291 28.1047 97.0248 26.3576ZM103.539 22.1727V21.8342C103.539 19.3693 102.198 17.9879 100.316 17.9879C98.3927 17.9879 97.0519 19.5318 97.0519 21.8748V22.1727C97.0519 24.6782 98.3521 26.1409 100.275 26.1409C102.334 26.1409 103.539 24.8543 103.539 22.1727ZM108.645 22.3759V21.9967C108.645 17.4868 111.53 15.0219 115.457 15.0219C119.466 15.0219 122.269 17.4868 122.269 21.9967V22.3759C122.269 26.8045 119.507 29.1882 115.457 29.1882C111.11 29.1475 108.645 26.8181 108.645 22.3759ZM118.708 22.3353V21.9967C118.708 19.4912 117.448 17.9879 115.444 17.9879C113.48 17.9879 112.18 19.3693 112.18 21.9967V22.3353C112.18 24.7595 113.439 26.1409 115.444 26.1409C117.462 26.1003 118.708 24.7595 118.708 22.3353ZM126.861 21.8342L122.134 15.3605H126.183L128.906 19.4099L131.668 15.3605H135.677L130.883 21.7935L135.935 28.8225H131.966L128.879 24.3532L125.872 28.8225H121.728L126.861 21.8342Z" fill="#212121"/>
<path d="M16.2112 12.178L8.35606 17.189L16.2112 22.2L8.35606 27.211L0.500977 22.1729L8.35606 17.1619L0.500977 12.178L8.35606 7.16699L16.2112 12.178ZM8.31543 28.8227L16.1705 23.8117L24.0256 28.8227L16.1705 33.8337L8.31543 28.8227ZM16.2112 22.1729L24.0662 17.1619L16.2112 12.178L24.0256 7.16699L31.8807 12.178L24.0256 17.189L31.8807 22.2L24.0256 27.211L16.2112 22.1729Z" fill="white"/>
<path d="M16.2112 12.178L8.35606 17.189L16.2112 22.2L8.35606 27.211L0.500977 22.1729L8.35606 17.1619L0.500977 12.178L8.35606 7.16699L16.2112 12.178ZM8.31543 28.8227L16.1705 23.8117L24.0256 28.8227L16.1705 33.8337L8.31543 28.8227ZM16.2112 22.1729L24.0662 17.1619L16.2112 12.178L24.0256 7.16699L31.8807 12.178L24.0256 17.189L31.8807 22.2L24.0256 27.211L16.2112 22.1729Z" fill="#212121"/>
</g>
<defs>
<clipPath id="clip0_1_49">
<rect width="135.833" height="40" fill="white" transform="translate(0.5 0.5)"/>
</clipPath>
</defs>
</svg>
